<svg width="36" height="36" viewBox="0 0 36 36" fill="none" xmlns="http://www.w3.org/2000/svg">
<path d="M21 5.25H15C9.34314 5.25 6.51473 5.25 4.75736 7.00735C3 8.76472 3 11.5931 3 17.25V18.75C3 24.4068 3 27.2353 4.75736 28.9926C6.51473 30.75 9.34314 30.75 15 30.75H21C26.6568 30.75 29.4853 30.75 31.2426 28.9926C33 27.2353 33 24.4068 33 18.75V17.25C33 11.5931 33 8.76472 31.2426 7.00735C29.4853 5.25 26.6568 5.25 21 5.25Z" stroke="currentColor" stroke-width="1.5" stroke-linejoin="round"/>
<path d="M7.5 24C9.05353 20.1284 14.8442 19.8737 16.5 24" stroke="currentColor" stroke-width="1.5" stroke-linecap="round"/>
<path d="M14.625 14.625C14.625 16.0747 13.4497 17.25 12 17.25C10.5503 17.25 9.375 16.0747 9.375 14.625C9.375 13.1753 10.5503 12 12 12C13.4497 12 14.625 13.1753 14.625 14.625Z" stroke="currentColor" stroke-width="1.5"/>
<path d="M21 12.75H28.5M21 18H28.5M21 23.25H24.75" stroke="currentColor" stroke-width="1.5" stroke-linecap="round" stroke-linejoin="round"/>
</svg>
