<svg width="36" height="36" viewBox="0 0 36 36" fill="none" xmlns="http://www.w3.org/2000/svg">
<path d="M18.003 13.5022C16.3461 13.5022 15.003 14.5095 15.003 15.7522C15.003 16.9948 16.3461 18.0022 18.003 18.0022C19.6597 18.0022 21.003 19.0096 21.003 20.2522C21.003 21.4948 19.6597 22.5022 18.003 22.5022M18.003 13.5022C19.3092 13.5022 20.4204 14.1283 20.8321 15.0022M18.003 13.5022V12.0022M18.003 22.5022C16.6966 22.5022 15.5854 21.8761 15.1737 21.0022M18.003 22.5022V24.0022" stroke="currentColor" stroke-width="1.5" stroke-linecap="round"/>
<path d="M20.25 3.75219C20.25 3.75219 19.0258 3.75219 18 3.75219C11.2825 3.75219 7.92373 3.75219 5.83686 5.83906C3.75 7.92592 3.75 11.2847 3.75 18.0022C3.75 24.7197 3.75 28.0785 5.83686 30.1655C7.92373 32.2523 11.2825 32.2522 18 32.2522C24.7175 32.2522 28.0763 32.2523 30.1632 30.1655C32.25 28.0785 32.25 24.7197 32.25 18.0022C32.25 16.9764 32.25 15.7522 32.25 15.7522" stroke="currentColor" stroke-width="1.5" stroke-linecap="round"/>
<path d="M24.75 11.2489L31.0137 4.98161M32.25 10.4663L32.0727 5.82903C32.0727 4.73606 31.42 4.05509 30.2313 3.96918L25.5453 3.74891" stroke="currentColor" stroke-width="1.5" stroke-linecap="round" stroke-linejoin="round"/>
</svg>
