<svg width="36" height="36" viewBox="0 0 36 36" fill="none" xmlns="http://www.w3.org/2000/svg">
<path d="M27 30C28.6569 30 30 28.6569 30 27V9C30 7.34314 28.6569 6 27 6" stroke="currentColor" stroke-width="1.5" stroke-linecap="round" stroke-linejoin="round"/>
<path d="M6 10.2716V25.7284C6 28.1181 6 29.313 6.69675 30.1464C7.39348 30.9797 8.57123 31.1934 10.9267 31.6209L15.4268 32.4376C18.7052 33.0325 20.3445 33.3301 21.4222 32.4322C22.5 31.5345 22.5 29.8713 22.5 26.5452V9.45487C22.5 6.12867 22.5 4.46556 21.4222 3.56773C20.3445 2.66991 18.7052 2.9674 15.4268 3.56242L10.9267 4.37911C8.57123 4.8066 7.39348 5.02034 6.69675 5.85366C6 6.68698 6 7.88185 6 10.2716Z" stroke="currentColor" stroke-width="1.5" stroke-linecap="round" stroke-linejoin="round"/>
<path d="M17.25 17.9974V17.9825" stroke="currentColor" stroke-width="1.5" stroke-linecap="round" stroke-linejoin="round"/>
</svg>
