<svg width="25" height="25" viewBox="0 0 25 25" fill="none" xmlns="http://www.w3.org/2000/svg">
<path d="M15.625 7.75C15.625 4.98858 13.3864 2.75 10.625 2.75C7.86358 2.75 5.625 4.98858 5.625 7.75C5.625 10.5114 7.86358 12.75 10.625 12.75C13.3864 12.75 15.625 10.5114 15.625 7.75Z" stroke="currentColor" stroke-width="1.5" stroke-linecap="round" stroke-linejoin="round"/>
<path d="M21.625 21.75L20.125 20.25M20.625 17.75C20.625 16.0931 19.2819 14.75 17.625 14.75C15.9681 14.75 14.625 16.0931 14.625 17.75C14.625 19.4069 15.9681 20.75 17.625 20.75C19.2819 20.75 20.625 19.4069 20.625 17.75Z" stroke="currentColor" stroke-width="1.5" stroke-linecap="round" stroke-linejoin="round"/>
<path d="M3.625 19.75C3.625 15.884 6.75901 12.75 10.625 12.75C11.6986 12.75 12.7157 12.9917 13.625 13.4236" stroke="currentColor" stroke-width="1.5" stroke-linecap="round" stroke-linejoin="round"/>
</svg>
